<?xml version="1.0" encoding="UTF-8" standalone="no"?>
<!-- Created with Inkscape (http://www.inkscape.org/) -->

<svg
   xmlns:dc="http://purl.org/dc/elements/1.1/"
   xmlns:cc="http://creativecommons.org/ns#"
   xmlns:rdf="http://www.w3.org/1999/02/22-rdf-syntax-ns#"
   xmlns:svg="http://www.w3.org/2000/svg"
   xmlns="http://www.w3.org/2000/svg"
   version="1.1"
   width="9"
   height="9"
   id="svg5360">
  <defs
     id="defs5362" />
  <metadata
     id="metadata5365">
    <rdf:RDF>
      <cc:Work
         rdf:about="">
        <dc:format>image/svg+xml</dc:format>
        <dc:type
           rdf:resource="http://purl.org/dc/dcmitype/StillImage" />
        <dc:title></dc:title>
      </cc:Work>
    </rdf:RDF>
  </metadata>
  <g
     transform="translate(0,-1043.3622)"
     id="layer1">
    <path
       d="M 2,0 4,0 4,1 5,1 5,2 6,2 6,3 7,3 7,6 9,6 9,8 8,8 8,9 6,9 6,7 3,7 3,6 2,6 2,5 1,5 1,4 0,4 0,2 1,2 1,1 2,1 2,0"
       transform="translate(0,1043.3622)"
       id="path5381"
       style="fill:#000000;fill-opacity:1;stroke:none" />
    <path
       d="M 2,1 4,1 4,2 5,2 5,3 6,3 6,6 3,6 3,5 2,5 2,4 1,4 1,2 2,2 z"
       transform="translate(0,1043.3622)"
       id="path5891"
       style="fill:#000000;fill-opacity:1;stroke:none" />
    <path
       d="M 2,1 4,1 4,2 5,2 5,3 6,3 6,6 7,6 7,7 8,7 8,8 7,8 7,7 6,7 6,6 3,6 3,5 2,5 2,4 1,4 1,2 2,2 z"
       transform="translate(0,1043.3622)"
       id="path5893"
       style="fill:#282828;fill-opacity:1;stroke:none" />
  </g>
</svg>
