<?xml version="1.0" encoding="UTF-8" standalone="no"?>
<!-- Created with Inkscape (http://www.inkscape.org/) -->

<svg
   xmlns:dc="http://purl.org/dc/elements/1.1/"
   xmlns:cc="http://creativecommons.org/ns#"
   xmlns:rdf="http://www.w3.org/1999/02/22-rdf-syntax-ns#"
   xmlns:svg="http://www.w3.org/2000/svg"
   xmlns="http://www.w3.org/2000/svg"
   version="1.1"
   width="9"
   height="9"
   id="svg2">
  <defs
     id="defs4" />
  <metadata
     id="metadata7">
    <rdf:RDF>
      <cc:Work
         rdf:about="">
        <dc:format>image/svg+xml</dc:format>
        <dc:type
           rdf:resource="http://purl.org/dc/dcmitype/StillImage" />
        <dc:title></dc:title>
      </cc:Work>
    </rdf:RDF>
  </metadata>
  <g
     transform="translate(-595,-767.36218)"
     id="layer1">
    <path
       d="m 597,767.36218 2,0 0,1 1,0 0,-1 2,0 0,1 1,0 0,1 1,0 0,3 -1,0 0,1 -1,0 0,1 -1,0 0,1 -1,0 0,1 -1,0 0,-1 -1,0 0,-1 -1,0 0,-1 -1,0 0,-1 -1,0 0,-3 1,0 0,-1 1,0 z"
       id="path4139"
       style="fill:#000000;fill-opacity:1;stroke:none" />
    <path
       d="M 2,1 4,1 4,2 5,2 5,1 7,1 7,2 8,2 8,5 7,5 7,6 6,6 6,7 5,7 5,8 4,8 4,7 3,7 3,6 2,6 2,5 1,5 1,2 2,2 2,1"
       transform="translate(595,767.36218)"
       id="path4665"
       style="fill:#ff0000;fill-opacity:1;stroke:none" />
  </g>
  <g
     id="layer3">
    <path
       d="m 597,770.36218 0,-1 1,0 0,1 z"
       transform="translate(-595,-767.36218)"
       id="path4653"
       style="fill:#ffc8c8;fill-opacity:1;stroke:none" />
    <path
       d="m 596,771.36218 1,0 0,1 1,0 0,1 1,0 0,1 1,0 0,-1 1,0 0,-1 1,0 0,-1 1,0 0,1 -1,0 0,1 -1,0 0,1 -1,0 0,1 -1,0 0,-1 -1,0 0,-1 -1,0 0,-1 -1,0 0,-1 0,0"
       transform="translate(-595,-767.36218)"
       id="path4657"
       style="fill:#bb1313;fill-opacity:1;stroke:none" />
  </g>
</svg>
