<?xml version="1.0" encoding="UTF-8" standalone="no"?>
<!-- Created with Inkscape (http://www.inkscape.org/) -->

<svg
   xmlns:dc="http://purl.org/dc/elements/1.1/"
   xmlns:cc="http://creativecommons.org/ns#"
   xmlns:rdf="http://www.w3.org/1999/02/22-rdf-syntax-ns#"
   xmlns:svg="http://www.w3.org/2000/svg"
   xmlns="http://www.w3.org/2000/svg"
   version="1.1"
   width="9"
   height="9"
   id="svg5360">
  <defs
     id="defs5362" />
  <metadata
     id="metadata5365">
    <rdf:RDF>
      <cc:Work
         rdf:about="">
        <dc:format>image/svg+xml</dc:format>
        <dc:type
           rdf:resource="http://purl.org/dc/dcmitype/StillImage" />
        <dc:title></dc:title>
      </cc:Work>
    </rdf:RDF>
  </metadata>
  <g
     transform="translate(0,-1043.3622)"
     id="layer1">
    <path
       d="M 2,0 4,0 4,1 5,1 5,2 6,2 6,3 7,3 7,6 9,6 9,8 8,8 8,9 6,9 6,7 3,7 3,6 2,6 2,5 1,5 1,4 0,4 0,2 1,2 1,1 2,1 2,0"
       transform="translate(0,1043.3622)"
       id="path5381"
       style="fill:#000000;fill-opacity:1;stroke:none" />
    <path
       d="M 2,1 4,1 4,2 5,2 5,3 6,3 6,6 3,6 3,5 2,5 2,4 1,4 1,2 2,2 z"
       transform="translate(0,1043.3622)"
       id="path5891"
       style="fill:#000000;fill-opacity:1;stroke:none" />
    <path
       d="M 6,6 6,7 7,7 7,6 6,6"
       transform="translate(0,1043.3622)"
       id="path5895"
       style="fill:#e2d5aa;fill-opacity:1;stroke:none" />
    <path
       d="M 7,7 8,7 8,8 7,8 z"
       transform="translate(0,1043.3622)"
       id="path5897"
       style="fill:#fff7dc;fill-opacity:1;stroke:none" />
    <path
       d="M 2,1 4,1 4,2 5,2 5,3 6,3 6,6 3,6 3,5 2,5 2,4 1,4 1,2 2,2 z"
       transform="translate(0,1043.3622)"
       id="path5899"
       style="fill:#9d6d43;fill-opacity:1;stroke:none" />
    <path
       d="M 4,5 6,5 6,6 4,6 z"
       transform="translate(0,1043.3622)"
       id="path5901"
       style="fill:#7b512d;fill-opacity:1;stroke:none" />
    <path
       d="m 3,1047.3622 1,0 0,1 -1,0 z"
       id="path5901-7"
       style="fill:#7b512d;fill-opacity:1;stroke:none" />
    <path
       d="m 3,1048.3622 1,0 0,1 -1,0 z"
       id="path5901-7-4"
       style="fill:#613c1b;fill-opacity:1;stroke:none" />
    <path
       d="m 2,1047.3622 1,0 0,1 -1,0 z"
       id="path5901-7-4-0"
       style="fill:#613c1b;fill-opacity:1;stroke:none" />
    <path
       d="m 3,1046.3622 1,0 0,1 -1,0 z"
       id="path5901-7-4-0-9"
       style="fill:#b88458;fill-opacity:1;stroke:none" />
    <path
       d="m 4,1045.3622 1,0 0,1 -1,0 z"
       id="path5901-7-4-0-9-4"
       style="fill:#b88458;fill-opacity:1;stroke:none" />
    <path
       d="m 5,1046.3622 1,0 0,1 -1,0 z"
       id="path5901-7-4-0-9-8"
       style="fill:#b88458;fill-opacity:1;stroke:none" />
    <path
       d="m 2,1045.3622 1,0 0,1 -1,0 z"
       id="path5901-7-4-0-9-82"
       style="fill:#dfb18f;fill-opacity:1;stroke:none" />
    <path
       d="m 3,1045.3622 1,0 0,1 -1,0 z"
       id="path5901-7-4-0-9-45"
       style="fill:#d42a2a;fill-opacity:1;stroke:none" />
    <path
       d="m 2,1044.3622 1,0 0,1 -1,0 z"
       id="path5901-7-4-0-9-45-5"
       style="fill:#d42a2a;fill-opacity:1;stroke:none" />
    <path
       d="m 1,1045.3622 1,0 0,1 -1,0 z"
       id="path5901-7-4-0-9-45-1"
       style="fill:#d42a2a;fill-opacity:1;stroke:none" />
    <path
       d="m 2,1046.3622 1,0 0,1 -1,0 z"
       id="path5901-7-4-0-9-45-7"
       style="fill:#d42a2a;fill-opacity:1;stroke:none" />
    <path
       d="m 1,1046.3622 1,0 0,1 -1,0 z"
       id="path5901-7-4-0-9-45-11"
       style="fill:#b21818;fill-opacity:1;stroke:none" />
    <path
       d="m 3,1044.3622 1,0 0,1 -1,0 z"
       id="path5901-7-4-0-9-45-11-5"
       style="fill:#b21818;fill-opacity:1;stroke:none" />
  </g>
</svg>
